<svg data-v-1084b650="" xmlns="http://www.w3.org/2000/svg" viewBox="0 0 300 300"><!----> <!----> <rect data-v-1084b650="" fill="none" x="0" y="0" width="300px" height="300px" class="logo-background-square"></rect> <!----> <linearGradient data-v-1084b650="" gradientTransform="rotate(25)" id="e555e30e-65bf-af88-4c1c-40742ea8d055" x1="0%" y1="0%" x2="100%" y2="0%"><stop data-v-1084b650="" offset="0%" style="stop-color: rgb(255, 0, 0); stop-opacity: 1;"></stop> <stop data-v-1084b650="" offset="100%" style="stop-color: rgb(246, 235, 55); stop-opacity: 1;"></stop></linearGradient> <g data-v-1084b650="" id="7ad1aa60-7cd1-f1db-0644-bf4f23d9f781" fill="url(#e555e30e-65bf-af88-4c1c-40742ea8d055)" stroke="none" transform="matrix(0.6999999999999997,0,0,0.6999999999999997,46.25563354492192,44.764377367496536)"><svg xmlns="http://www.w3.org/2000/svg" viewBox="0 0 100 100"><path fill-rule="evenodd" clip-rule="evenodd" d="M55.205 52.05l.471 3.264-26.733 26.732h-3.735zM4.679 100H0l54.299-54.288.58 4.09zM8.325 89.102v-4.317l40.831-40.832 3.744.58zM3.609 86.926v-4.082l39.789-39.789 3.527.553z"></path><path fill-rule="evenodd" clip-rule="evenodd" d="M85.691 5.134c1.016-.508 2.084-.677 3.209-.508a5.196 5.196 0 0 1 2.92 1.452 5.213 5.213 0 0 1 1.559 2.864 5.39 5.39 0 0 1-.398 3.246L86.69 25.935l10.572 10.754a5.473 5.473 0 0 1 1.469 2.92 5.266 5.266 0 0 1-.473 3.21 5.384 5.384 0 0 1-2.266 2.357 5.354 5.354 0 0 1-3.193.635l-14.98-1.742-6.98 13.385a5.466 5.466 0 0 1-2.305 2.286c-1.027.52-2.098.7-3.209.544a5.415 5.415 0 0 1-2.938-1.414 5.208 5.208 0 0 1-1.578-2.848L57.817 41.26l-14.908-2.504a5.317 5.317 0 0 1-2.884-1.487c-.822-.811-1.33-1.771-1.523-2.884a5.294 5.294 0 0 1 .436-3.228 5.314 5.314 0 0 1 2.212-2.395l13.167-7.437-2.25-14.924a5.188 5.188 0 0 1 .525-3.21A5.203 5.203 0 0 1 54.86.871a5.193 5.193 0 0 1 3.211-.599c1.113.145 2.098.604 2.957 1.377L72.18 11.898l13.511-6.764z"></path></svg></g></svg>