<svg data-v-5f19e91b="" xmlns="http://www.w3.org/2000/svg" width="394" height="90" viewBox="0 0 394 90"><!----> <!----> <!----> <g data-v-5f19e91b="" id="c604905a-7c97-0c4d-8701-4c5848b1cd6d" fill="white" transform="matrix(5.639098067841383,0,0,5.639098067841383,102.58238549056264,3.1578960258308726)"><path d="M8.70 2.10L8.70 9.89L2.87 2.10L1.16 2.10L1.16 12.60L2.87 12.60L2.87 4.80L8.68 12.60L10.40 12.60L10.40 2.10ZM15.98 12.74C18.15 12.74 19.74 11.15 19.74 9.10C19.74 7.05 18.15 5.46 15.98 5.46C13.81 5.46 12.21 7.05 12.21 9.10C12.21 11.15 13.81 12.74 15.98 12.74ZM15.98 11.20C14.79 11.20 13.88 10.27 13.88 9.10C13.88 7.93 14.79 7.00 15.98 7.00C17.15 7.00 18.08 7.93 18.08 9.10C18.08 10.27 17.15 11.20 15.98 11.20ZM27.02 5.60L21.19 5.60L21.19 7.07L24.34 7.07L20.88 12.60L26.95 12.60L26.95 11.13L23.54 11.13ZM31.85 12.74C34.02 12.74 35.61 11.15 35.61 9.10C35.61 7.05 34.02 5.46 31.85 5.46C29.68 5.46 28.09 7.05 28.09 9.10C28.09 11.15 29.68 12.74 31.85 12.74ZM31.85 11.20C30.66 11.20 29.75 10.27 29.75 9.10C29.75 7.93 30.66 7.00 31.85 7.00C33.02 7.00 33.95 7.93 33.95 9.10C33.95 10.27 33.02 11.20 31.85 11.20ZM44.91 5.46C44.00 5.46 43.24 5.88 42.79 6.56C42.33 5.90 41.62 5.46 40.83 5.46C40.13 5.46 39.53 5.79 39.10 6.32L39.10 5.60L37.43 5.60L37.43 12.60L39.10 12.60L39.10 8.33C39.10 7.65 39.59 7.00 40.34 7.00C41.06 7.00 41.60 7.60 41.60 8.33L41.60 12.60L43.26 12.60L43.26 8.33C43.26 7.65 43.75 7.00 44.50 7.00C45.22 7.00 45.76 7.60 45.76 8.33L45.76 12.60L47.43 12.60L47.43 8.16C47.43 6.62 46.39 5.46 44.91 5.46ZM50.52 4.36C51.07 4.36 51.52 3.90 51.52 3.38C51.52 2.82 51.07 2.38 50.52 2.38C49.98 2.38 49.53 2.82 49.53 3.38C49.53 3.90 49.98 4.36 50.52 4.36ZM49.70 12.60L51.35 12.60L51.35 5.60L49.70 5.60Z"></path></g> <!----> <g data-v-5f19e91b="" id="11a9968f-efeb-108d-9be2-0b86cf3be2dc" transform="matrix(0.9020241037704542,0,0,0.9020241037704542,0.4381325802192251,0.021985704857456767)" stroke="none" fill="white"><path fill-rule="evenodd" clip-rule="evenodd" d="M55.205 52.05l.471 3.264-26.733 26.732h-3.735zM4.679 100H0l54.299-54.288.58 4.09zM8.325 89.102v-4.317l40.831-40.832 3.744.58zM3.609 86.926v-4.082l39.789-39.789 3.527.553z"></path><path fill-rule="evenodd" clip-rule="evenodd" d="M85.691 5.134c1.016-.508 2.084-.677 3.209-.508a5.196 5.196 0 0 1 2.92 1.452 5.213 5.213 0 0 1 1.559 2.864 5.39 5.39 0 0 1-.398 3.246L86.69 25.935l10.572 10.754a5.473 5.473 0 0 1 1.469 2.92 5.266 5.266 0 0 1-.473 3.21 5.384 5.384 0 0 1-2.266 2.357 5.354 5.354 0 0 1-3.193.635l-14.98-1.742-6.98 13.385a5.466 5.466 0 0 1-2.305 2.286c-1.027.52-2.098.7-3.209.544a5.415 5.415 0 0 1-2.938-1.414 5.208 5.208 0 0 1-1.578-2.848L57.817 41.26l-14.908-2.504a5.317 5.317 0 0 1-2.884-1.487c-.822-.811-1.33-1.771-1.523-2.884a5.294 5.294 0 0 1 .436-3.228 5.314 5.314 0 0 1 2.212-2.395l13.167-7.437-2.25-14.924a5.188 5.188 0 0 1 .525-3.21A5.203 5.203 0 0 1 54.86.871a5.193 5.193 0 0 1 3.211-.599c1.113.145 2.098.604 2.957 1.377L72.18 11.898l13.511-6.764z"></path></g></svg>