<?xml version="1.0" encoding="UTF-8" standalone="no"?>
<svg
   xmlns:dc="http://purl.org/dc/elements/1.1/"
   xmlns:cc="http://creativecommons.org/ns#"
   xmlns:rdf="http://www.w3.org/1999/02/22-rdf-syntax-ns#"
   xmlns:svg="http://www.w3.org/2000/svg"
   xmlns="http://www.w3.org/2000/svg"
   xmlns:xlink="http://www.w3.org/1999/xlink"
   xmlns:sodipodi="http://sodipodi.sourceforge.net/DTD/sodipodi-0.dtd"
   xmlns:inkscape="http://www.inkscape.org/namespaces/inkscape"
   data-v-1084b650=""
   viewBox="0 0 237.27359 45.301361"
   version="1.1"
   id="svg19"
   sodipodi:docname="icon-left-font.svg"
   width="237.27359"
   height="45.301361"
   inkscape:version="0.92.3 (2405546, 2018-03-11)"
   inkscape:export-filename="D:\UlteriorDevelopment\Repossesion\afroraydude-cms\vendor\afroraydude\nozomi-core\src\img\icon-left-font.png"
   inkscape:export-xdpi="96"
   inkscape:export-ydpi="96">
  <metadata
     id="metadata25">
    <rdf:RDF>
      <cc:Work
         rdf:about="">
        <dc:format>image/svg+xml</dc:format>
        <dc:type
           rdf:resource="http://purl.org/dc/dcmitype/StillImage" />
      </cc:Work>
    </rdf:RDF>
  </metadata>
  <defs
     id="defs23">
    <linearGradient
       inkscape:collect="always"
       xlink:href="#094bd9f2-e5cf-09f5-8544-d02ea8186207"
       id="linearGradient832"
       gradientTransform="scale(0.98879489,1.0113321)"
       x1="0"
       y1="42.572564"
       x2="56.306925"
       y2="42.572564"
       gradientUnits="userSpaceOnUse" />
    <linearGradient
       inkscape:collect="always"
       xlink:href="#094bd9f2-e5cf-09f5-8544-d02ea8186207"
       id="linearGradient834"
       gradientTransform="scale(1.0022627,0.99774237)"
       x1="38.33119"
       y1="0.22490614"
       x2="98.581085"
       y2="0.22490614"
       gradientUnits="userSpaceOnUse" />
    <linearGradient
       inkscape:collect="always"
       xlink:href="#094bd9f2-e5cf-09f5-8544-d02ea8186207"
       id="linearGradient836"
       gradientTransform="scale(0.9951199,1.004904)"
       x1="0"
       y1="0.2233033"
       x2="99.288687"
       y2="0.2233033"
       gradientUnits="userSpaceOnUse" />
    <linearGradient
       inkscape:collect="always"
       xlink:href="#094bd9f2-e5cf-09f5-8544-d02ea8186207"
       id="linearGradient838"
       gradientTransform="scale(0.9951199,1.004904)"
       x1="0"
       y1="0.2233033"
       x2="99.288687"
       y2="0.2233033"
       gradientUnits="userSpaceOnUse" />
  </defs>
  <sodipodi:namedview
     pagecolor="#ffffff"
     bordercolor="#666666"
     borderopacity="1"
     objecttolerance="10"
     gridtolerance="10"
     guidetolerance="10"
     inkscape:pageopacity="0"
     inkscape:pageshadow="2"
     inkscape:window-width="1920"
     inkscape:window-height="1027"
     id="namedview21"
     showgrid="false"
     inkscape:zoom="4.4500587"
     inkscape:cx="64.161917"
     inkscape:cy="18.242913"
     inkscape:window-x="1272"
     inkscape:window-y="-8"
     inkscape:window-maximized="1"
     inkscape:current-layer="svg19" />
  <!---->
  <!---->
  <rect
     data-v-1084b650=""
     x="-38.206242"
     y="-122.78664"
     width="300"
     height="300"
     class="logo-background-square"
     id="rect2"
     style="fill:none" />
  <!---->
  <g
     data-v-1084b650=""
     id="c0667dbb-adeb-e7f3-f106-854e82973a7e"
     transform="matrix(3.4,0,0,3.4,62.105589,1.9853598)"
     style="fill:#000000">
    <path
       d="M 8.7,2.1 V 9.89 L 2.87,2.1 H 1.16 V 12.6 H 2.87 V 4.8 l 5.81,7.8 H 10.4 V 2.1 Z m 7.28,10.64 c 2.17,0 3.76,-1.59 3.76,-3.64 0,-2.05 -1.59,-3.64 -3.76,-3.64 -2.17,0 -3.77,1.59 -3.77,3.64 0,2.05 1.6,3.64 3.77,3.64 z m 0,-1.54 c -1.19,0 -2.1,-0.93 -2.1,-2.1 0,-1.17 0.91,-2.1 2.1,-2.1 1.17,0 2.1,0.93 2.1,2.1 0,1.17 -0.93,2.1 -2.1,2.1 z M 27.02,5.6 h -5.83 v 1.47 h 3.15 l -3.46,5.53 h 6.07 v -1.47 h -3.41 z m 4.83,7.14 c 2.17,0 3.76,-1.59 3.76,-3.64 0,-2.05 -1.59,-3.64 -3.76,-3.64 -2.17,0 -3.76,1.59 -3.76,3.64 0,2.05 1.59,3.64 3.76,3.64 z m 0,-1.54 c -1.19,0 -2.1,-0.93 -2.1,-2.1 0,-1.17 0.91,-2.1 2.1,-2.1 1.17,0 2.1,0.93 2.1,2.1 0,1.17 -0.93,2.1 -2.1,2.1 z M 44.91,5.46 c -0.91,0 -1.67,0.42 -2.12,1.1 -0.46,-0.66 -1.17,-1.1 -1.96,-1.1 -0.7,0 -1.3,0.33 -1.73,0.86 V 5.6 h -1.67 v 7 H 39.1 V 8.33 C 39.1,7.65 39.59,7 40.34,7 41.06,7 41.6,7.6 41.6,8.33 v 4.27 h 1.66 V 8.33 C 43.26,7.65 43.75,7 44.5,7 c 0.72,0 1.26,0.6 1.26,1.33 v 4.27 h 1.67 V 8.16 c 0,-1.54 -1.04,-2.7 -2.52,-2.7 z m 5.61,-1.1 c 0.55,0 1,-0.46 1,-0.98 0,-0.56 -0.45,-1 -1,-1 -0.54,0 -0.99,0.44 -0.99,1 0,0.52 0.45,0.98 0.99,0.98 z M 49.7,12.6 h 1.65 v -7 H 49.7 Z"
       id="path4"
       inkscape:connector-curvature="0" />
  </g>
  <linearGradient
     data-v-1084b650=""
     gradientTransform="rotate(25)"
     id="094bd9f2-e5cf-09f5-8544-d02ea8186207"
     x1="0"
     y1="0"
     x2="1"
     y2="0">
    <stop
       data-v-1084b650=""
       offset="0%"
       style="stop-color: rgb(255, 0, 0); stop-opacity: 1;"
       id="stop7" />
    <stop
       data-v-1084b650=""
       offset="100%"
       style="stop-color: rgb(246, 235, 55); stop-opacity: 1;"
       id="stop9" />
  </linearGradient>
  <g
     data-v-1084b650=""
     id="45a3d52d-74ae-741c-04e5-719c280ad895"
     transform="matrix(0.85152274,0,0,0.88341615,-70.167427,5.0341147)"
     style="fill:url(#linearGradient838);stroke:none">
    <svg
       viewBox="0 0 100 100"
       version="1.1"
       id="svg16"
       width="100%"
       height="100%"
       style="fill:url(#linearGradient836)">
      <path
         d="m 55.205,52.05 0.471,3.264 -26.733,26.732 H 25.208 Z M 4.679,100 H 0 l 54.299,-54.288 0.58,4.09 z M 8.325,89.102 V 84.785 L 49.156,43.953 52.9,44.533 Z M 3.609,86.926 v -4.082 l 39.789,-39.789 3.527,0.553 z"
         id="path12"
         inkscape:connector-curvature="0"
         style="clip-rule:evenodd;fill:url(#linearGradient832);fill-rule:evenodd" />
      <path
         d="M 85.691,5.134 C 86.707,4.626 87.775,4.457 88.9,4.626 a 5.196,5.196 0 0 1 2.92,1.452 5.213,5.213 0 0 1 1.559,2.864 5.39,5.39 0 0 1 -0.398,3.246 L 86.69,25.935 97.262,36.689 a 5.473,5.473 0 0 1 1.469,2.92 5.266,5.266 0 0 1 -0.473,3.21 5.384,5.384 0 0 1 -2.266,2.357 5.354,5.354 0 0 1 -3.193,0.635 l -14.98,-1.742 -6.98,13.385 a 5.466,5.466 0 0 1 -2.305,2.286 c -1.027,0.52 -2.098,0.7 -3.209,0.544 A 5.415,5.415 0 0 1 62.387,58.87 5.208,5.208 0 0 1 60.809,56.022 L 57.817,41.26 42.909,38.756 a 5.317,5.317 0 0 1 -2.884,-1.487 c -0.822,-0.811 -1.33,-1.771 -1.523,-2.884 a 5.294,5.294 0 0 1 0.436,-3.228 5.314,5.314 0 0 1 2.212,-2.395 L 54.317,21.325 52.067,6.401 a 5.188,5.188 0 0 1 0.525,-3.21 5.203,5.203 0 0 1 2.268,-2.32 5.193,5.193 0 0 1 3.211,-0.599 c 1.113,0.145 2.098,0.604 2.957,1.377 L 72.18,11.898 Z"
         id="path14"
         inkscape:connector-curvature="0"
         style="clip-rule:evenodd;fill:url(#linearGradient834);fill-rule:evenodd" />
    </svg>
  </g>
</svg>
